<mxfile host="65bd71144e">
    <diagram id="9UPTPoMBMZQXiAFbUXFs" name="Page-1">
        <mxGraphModel dx="496" dy="341" grid="1" gridSize="10" guides="1" tooltips="1" connect="1" arrows="1" fold="1" page="1" pageScale="1" pageWidth="850" pageHeight="1100" background="#ffffff" math="0" shadow="0">
            <root>
                <mxCell id="0"/>
                <mxCell id="1" parent="0"/>
                <mxCell id="2" value="Dispatcher" style="rounded=1;whiteSpace=wrap;html=1;fillColor=#f0a30a;strokeColor=#BD7000;fontColor=#000000;strokeWidth=0.5;fontFamily=Tahoma;" parent="1" vertex="1">
                    <mxGeometry x="210" y="160" width="180" height="30" as="geometry"/>
                </mxCell>
                <mxCell id="3" value="Compute Unit" style="rounded=1;whiteSpace=wrap;html=1;strokeWidth=0.5;fillColor=#647687;fontColor=#000000;strokeColor=#314354;fontFamily=Tahoma;" parent="1" vertex="1">
                    <mxGeometry x="230" y="210" width="70" height="50" as="geometry"/>
                </mxCell>
                <mxCell id="4" value="Compute Unit" style="rounded=1;whiteSpace=wrap;html=1;strokeWidth=0.5;fillColor=#647687;fontColor=#000000;strokeColor=#314354;fontFamily=Tahoma;" parent="1" vertex="1">
                    <mxGeometry x="320" y="210" width="70" height="50" as="geometry"/>
                </mxCell>
                <mxCell id="5" value="Compute Unit" style="rounded=1;whiteSpace=wrap;html=1;strokeWidth=0.5;fillColor=#647687;fontColor=#000000;strokeColor=#314354;fontFamily=Tahoma;" parent="1" vertex="1">
                    <mxGeometry x="140" y="210" width="70" height="50" as="geometry"/>
                </mxCell>
                <mxCell id="6" value="Compute Unit" style="rounded=1;whiteSpace=wrap;html=1;strokeWidth=0.5;fillColor=#647687;fontColor=#000000;strokeColor=#314354;fontFamily=Tahoma;" parent="1" vertex="1">
                    <mxGeometry x="410" y="210" width="70" height="50" as="geometry"/>
                </mxCell>
                <mxCell id="7" value="Instruction Controller" style="rounded=1;whiteSpace=wrap;html=1;fillColor=#76608a;strokeColor=#432D57;strokeWidth=0.5;fontFamily=Tahoma;fontColor=#000000;" parent="1" vertex="1">
                    <mxGeometry x="320" y="300" width="160" height="30" as="geometry"/>
                </mxCell>
                <mxCell id="8" value="Data Controller" style="rounded=1;whiteSpace=wrap;html=1;fillColor=#6d8764;strokeColor=#3A5431;strokeWidth=0.5;fontFamily=Tahoma;fontColor=#000000;" parent="1" vertex="1">
                    <mxGeometry x="140" y="300" width="160" height="30" as="geometry"/>
                </mxCell>
                <mxCell id="14" value="" style="endArrow=none;html=1;fontFamily=Tahoma;entryX=0.5;entryY=1;entryDx=0;entryDy=0;strokeColor=#FFFFFF;fontColor=#000000;" parent="1" target="2" edge="1">
                    <mxGeometry width="50" height="50" relative="1" as="geometry">
                        <mxPoint x="300" y="200" as="sourcePoint"/>
                        <mxPoint x="330" y="230" as="targetPoint"/>
                    </mxGeometry>
                </mxCell>
                <mxCell id="15" value="" style="endArrow=none;html=1;fontFamily=Tahoma;strokeColor=#FFFFFF;fontColor=#000000;" parent="1" edge="1">
                    <mxGeometry width="50" height="50" relative="1" as="geometry">
                        <mxPoint x="170" y="200" as="sourcePoint"/>
                        <mxPoint x="440" y="200" as="targetPoint"/>
                    </mxGeometry>
                </mxCell>
                <mxCell id="16" value="" style="endArrow=none;html=1;fontFamily=Tahoma;strokeColor=#FFFFFF;fontColor=#000000;" parent="1" edge="1">
                    <mxGeometry width="50" height="50" relative="1" as="geometry">
                        <mxPoint x="170" y="200" as="sourcePoint"/>
                        <mxPoint x="170" y="210" as="targetPoint"/>
                    </mxGeometry>
                </mxCell>
                <mxCell id="19" value="" style="endArrow=none;html=1;fontFamily=Tahoma;strokeColor=#FFFFFF;fontColor=#000000;" parent="1" edge="1">
                    <mxGeometry width="50" height="50" relative="1" as="geometry">
                        <mxPoint x="264.92" y="200" as="sourcePoint"/>
                        <mxPoint x="264.92" y="210" as="targetPoint"/>
                    </mxGeometry>
                </mxCell>
                <mxCell id="20" value="" style="endArrow=none;html=1;fontFamily=Tahoma;strokeColor=#FFFFFF;fontColor=#000000;" parent="1" edge="1">
                    <mxGeometry width="50" height="50" relative="1" as="geometry">
                        <mxPoint x="354.92" y="200" as="sourcePoint"/>
                        <mxPoint x="354.92" y="210" as="targetPoint"/>
                    </mxGeometry>
                </mxCell>
                <mxCell id="21" value="" style="endArrow=none;html=1;fontFamily=Tahoma;strokeColor=#FFFFFF;fontColor=#000000;" parent="1" edge="1">
                    <mxGeometry width="50" height="50" relative="1" as="geometry">
                        <mxPoint x="440" y="200" as="sourcePoint"/>
                        <mxPoint x="440" y="210" as="targetPoint"/>
                    </mxGeometry>
                </mxCell>
                <mxCell id="26" value="" style="endArrow=none;html=1;fontFamily=Tahoma;strokeColor=#CCFF99;fontColor=#000000;" parent="1" edge="1">
                    <mxGeometry width="50" height="50" relative="1" as="geometry">
                        <mxPoint x="160" y="270" as="sourcePoint"/>
                        <mxPoint x="430" y="270" as="targetPoint"/>
                    </mxGeometry>
                </mxCell>
                <mxCell id="30" value="" style="endArrow=classic;html=1;fontFamily=Tahoma;entryX=0.25;entryY=0;entryDx=0;entryDy=0;strokeColor=#CCFF99;fontColor=#000000;" parent="1" edge="1">
                    <mxGeometry width="50" height="50" relative="1" as="geometry">
                        <mxPoint x="219.81" y="270" as="sourcePoint"/>
                        <mxPoint x="219.81" y="300" as="targetPoint"/>
                    </mxGeometry>
                </mxCell>
                <mxCell id="31" value="" style="endArrow=classic;html=1;fontFamily=Tahoma;strokeColor=#CCFF99;fontColor=#000000;" parent="1" edge="1">
                    <mxGeometry width="50" height="50" relative="1" as="geometry">
                        <mxPoint x="250" y="270" as="sourcePoint"/>
                        <mxPoint x="250" y="260" as="targetPoint"/>
                    </mxGeometry>
                </mxCell>
                <mxCell id="32" value="" style="endArrow=classic;html=1;fontFamily=Tahoma;strokeColor=#CCFF99;fontColor=#000000;" parent="1" edge="1">
                    <mxGeometry width="50" height="50" relative="1" as="geometry">
                        <mxPoint x="340" y="270" as="sourcePoint"/>
                        <mxPoint x="340" y="260" as="targetPoint"/>
                    </mxGeometry>
                </mxCell>
                <mxCell id="33" value="" style="endArrow=classic;html=1;fontFamily=Tahoma;strokeColor=#CCFF99;fontColor=#000000;" parent="1" edge="1">
                    <mxGeometry width="50" height="50" relative="1" as="geometry">
                        <mxPoint x="430" y="270" as="sourcePoint"/>
                        <mxPoint x="430" y="260" as="targetPoint"/>
                    </mxGeometry>
                </mxCell>
                <mxCell id="34" value="" style="endArrow=classic;html=1;fontFamily=Tahoma;strokeColor=#CCFF99;fontColor=#000000;" parent="1" edge="1">
                    <mxGeometry width="50" height="50" relative="1" as="geometry">
                        <mxPoint x="160" y="270" as="sourcePoint"/>
                        <mxPoint x="160" y="260" as="targetPoint"/>
                    </mxGeometry>
                </mxCell>
                <mxCell id="36" value="" style="endArrow=classic;html=1;fontFamily=Tahoma;entryX=0.25;entryY=0;entryDx=0;entryDy=0;strokeColor=#CC99FF;fontColor=#000000;" parent="1" edge="1">
                    <mxGeometry width="50" height="50" relative="1" as="geometry">
                        <mxPoint x="400.05" y="280" as="sourcePoint"/>
                        <mxPoint x="399.85999999999996" y="300" as="targetPoint"/>
                    </mxGeometry>
                </mxCell>
                <mxCell id="37" value="" style="endArrow=none;html=1;fontFamily=Tahoma;strokeColor=#CC99FF;fontColor=#000000;" parent="1" edge="1">
                    <mxGeometry width="50" height="50" relative="1" as="geometry">
                        <mxPoint x="190" y="280" as="sourcePoint"/>
                        <mxPoint x="460" y="280" as="targetPoint"/>
                    </mxGeometry>
                </mxCell>
                <mxCell id="38" value="" style="endArrow=classic;html=1;strokeColor=#CC99FF;fontFamily=Tahoma;fontColor=#000000;" parent="1" edge="1">
                    <mxGeometry width="50" height="50" relative="1" as="geometry">
                        <mxPoint x="460" y="280" as="sourcePoint"/>
                        <mxPoint x="460" y="260" as="targetPoint"/>
                    </mxGeometry>
                </mxCell>
                <mxCell id="39" value="" style="endArrow=classic;html=1;strokeColor=#CC99FF;fontFamily=Tahoma;fontColor=#000000;" parent="1" edge="1">
                    <mxGeometry width="50" height="50" relative="1" as="geometry">
                        <mxPoint x="370" y="280" as="sourcePoint"/>
                        <mxPoint x="370" y="260" as="targetPoint"/>
                    </mxGeometry>
                </mxCell>
                <mxCell id="40" value="" style="endArrow=classic;html=1;strokeColor=#CC99FF;fontFamily=Tahoma;fontColor=#000000;" parent="1" edge="1">
                    <mxGeometry width="50" height="50" relative="1" as="geometry">
                        <mxPoint x="280" y="280" as="sourcePoint"/>
                        <mxPoint x="280" y="260" as="targetPoint"/>
                    </mxGeometry>
                </mxCell>
                <mxCell id="41" value="" style="endArrow=classic;html=1;strokeColor=#CC99FF;fontFamily=Tahoma;fontColor=#000000;" parent="1" edge="1">
                    <mxGeometry width="50" height="50" relative="1" as="geometry">
                        <mxPoint x="190" y="280" as="sourcePoint"/>
                        <mxPoint x="190" y="260" as="targetPoint"/>
                    </mxGeometry>
                </mxCell>
                <mxCell id="42" value="" style="rounded=0;whiteSpace=wrap;html=1;strokeWidth=0.5;fontFamily=Tahoma;fillColor=none;strokeColor=#000000;fontColor=#000000;" parent="1" vertex="1">
                    <mxGeometry x="130" y="150" width="360" height="190" as="geometry"/>
                </mxCell>
            </root>
        </mxGraphModel>
    </diagram>
</mxfile>